<?xml version="1.0" encoding="UTF-8"?><svg id="LOGO" xmlns="http://www.w3.org/2000/svg" viewBox="0 0 1359.81 577.89"><defs><style>.cls-1{fill:#fff;}.cls-2{fill:#f0f;}</style></defs><path class="cls-1" d="m534.12,276.35c-21.8,0-40.9-2.64-57.29-7.92-16.4-5.28-31.12-11.74-44.15-19.38l15.17-50.21c13.48,7.87,27.02,14.33,40.61,19.38,13.59,5.06,29.15,7.58,46.68,7.58,13.25,0,22.8-2.47,28.65-7.41,5.84-4.94,8.76-11.57,8.76-19.89,0-10.33-3.71-17.41-11.12-21.23-7.42-3.81-20.22-7.75-38.42-11.79-30.79-6.96-52.41-16.51-64.88-28.65-12.47-12.13-18.7-29.66-18.7-52.57s8.09-43.53,24.26-59.82C479.86,8.15,504.68,0,538.16,0c16.18,0,32.52,2.86,49.04,8.6,16.51,5.73,29.6,11.4,39.26,17.02l-11.79,47.86c-13.48-6.74-26.24-12.13-38.25-16.18-12.02-4.04-24.66-6.06-37.91-6.06-11.01,0-19.1,2.13-24.27,6.4-5.17,4.27-7.75,10.56-7.75,18.87s3.14,14.95,9.44,19.88c6.29,4.94,19.77,9.56,40.44,13.82,30.78,6.52,52.41,16.06,64.88,28.65,12.47,12.59,18.7,31.12,18.7,55.61,0,26.06-9.33,46.22-27.97,60.49-18.65,14.27-44.6,21.4-77.85,21.4Z"/><path class="cls-1" d="m824.62,272.98l-13.82-60.66h-76.5l-15.17,60.66h-60.66L731.94,3.37h82.57l73.47,269.61h-63.36Zm-25.28-111.22l-24.6-109.87-27.64,109.87h52.24Z"/><path class="cls-1" d="m1009.64,276.35c-32.81,0-57.97-8.03-75.49-24.1-17.52-16.06-26.29-39.15-26.29-69.26v-88.3c0-30.55,8.71-53.98,26.12-70.27,17.41-16.29,42.52-24.43,75.32-24.43s57.4,7.31,73.81,21.91c16.4,14.61,25.39,35.5,26.96,62.69l-67.4,3.37c-1.13-14.15-4.1-23.93-8.93-29.32-4.84-5.39-12.75-8.09-23.76-8.09-13.03,0-22.07,3.65-27.13,10.95-5.06,7.31-7.58,20.62-7.58,39.94v74.82c0,18.87,2.41,31.85,7.24,38.93,4.83,7.08,13.65,10.62,26.46,10.62s21.68-3.42,26.63-10.28c4.94-6.85,7.3-19.15,7.08-36.9h-33.7v-50.55h101.11v54.93c0,30.11-8.65,53.2-25.95,69.26-17.31,16.07-42.13,24.1-74.48,24.1Z"/><path class="cls-1" d="m1296.45,272.98l-13.82-60.66h-76.5l-15.17,60.66h-60.66L1203.76,3.37h82.57l73.47,269.61h-63.36Zm-25.28-111.22l-24.6-109.87-27.64,109.87h52.24Z"/><path class="cls-1" d="m452.89,574.53v-269.62h67.4v219.06h117.96v50.56h-185.36Z"/><path class="cls-1" d="m824.62,574.53l-13.82-60.67h-76.5l-15.17,60.67h-60.66l73.47-269.62h82.57l73.47,269.62h-63.36Zm-25.28-111.22l-24.6-109.87-27.64,109.87h52.24Z"/><path class="cls-1" d="m907.86,574.53v-269.62h105.82c30.33,0,52.75,5.18,67.24,15.5,14.49,10.34,21.74,26.29,21.74,47.86v11.46c0,14.83-3.15,25.78-9.44,32.86-6.29,7.08-16.51,11.85-30.67,14.33v9.77c15.28,1.58,27.01,6.8,35.22,15.67,8.2,8.88,12.3,20.05,12.3,33.53v17.53c0,24.05-7.92,41.91-23.76,53.59-15.84,11.68-40.39,17.53-73.64,17.53h-104.81Zm67.4-161.77h31.68c10.56,0,18.03-1.69,22.41-5.06,4.38-3.37,6.57-9.21,6.57-17.53v-16.17c0-8.09-2.19-13.76-6.57-17.02-4.38-3.25-11.85-4.88-22.41-4.88h-31.68v60.66Zm0,114.58h30.33c13.48,0,23.03-2.02,28.65-6.07,5.61-4.04,8.42-11.12,8.42-21.23v-17.53c0-9.66-2.81-16.51-8.42-20.56-5.62-4.05-15.17-6.06-28.65-6.06h-30.33v71.44Z"/><path class="cls-1" d="m1241.85,577.89c-21.8,0-40.9-2.64-57.29-7.92-16.4-5.27-31.12-11.74-44.15-19.37l15.17-50.22c13.48,7.87,27.02,14.33,40.61,19.38,13.59,5.06,29.15,7.58,46.68,7.58,13.25,0,22.8-2.47,28.65-7.41,5.84-4.94,8.76-11.57,8.76-19.88,0-10.33-3.71-17.41-11.12-21.23-7.42-3.82-20.22-7.76-38.42-11.8-30.79-6.96-52.41-16.51-64.88-28.64-12.47-12.14-18.7-29.66-18.7-52.58s8.09-43.52,24.26-59.82c16.18-16.28,41-24.43,74.48-24.43,16.18,0,32.52,2.87,49.04,8.59,16.51,5.73,29.6,11.41,39.26,17.02l-11.79,47.86c-13.48-6.74-26.24-12.14-38.25-16.18-12.02-4.05-24.66-6.07-37.91-6.07-11.01,0-19.1,2.14-24.27,6.4-5.17,4.28-7.75,10.57-7.75,18.88s3.14,14.94,9.44,19.88c6.29,4.94,19.77,9.55,40.44,13.82,30.78,6.52,52.41,16.07,64.88,28.65,12.47,12.58,18.7,31.12,18.7,55.6,0,26.07-9.33,46.23-27.97,60.49-18.65,14.28-44.6,21.4-77.85,21.4Z"/><path class="cls-2" d="m253.07,145.11c-34.02-9.41-69.27-16.92-104.37-19.23-42.65-2.81-81.59,11.62-112.42,42.99-9.49,9.66-16.67,20.89-13.17,36.56,8.3-5.38,15.56-11.45,21.77-18.47,19.63-22.19,43.91-35.9,72.98-41.05,30.2-5.34,59.87.61,89.58,4.8,35,4.93,65.44,20.23,88.08,46.83,46.14,54.21,68.21,118.19,64.1,189.08-1.55,26.72-11.28,52.68-26.22,72.85,1.07-3.89,1.54-7.68,1.24-11.37-1.95-24.09.93-38,2.54-48.6.17-.67.33-1.35.46-2.04,5.36-54.61-4.94-96.03-12.94-119.72-6.33-18.74-13.32-39.19-31.03-60.52-19.26-23.2-45.13-39.95-77-51.6-102.55-37.47-173.95,23.03-211,96.55-5.15,10.21-7.84,21.92-3.54,33.55,1.31.61,2.63,1.22,3.94,1.83,3.84-6.36,8.41-12.4,11.4-19.14,10.95-24.66,27.32-45.21,46.12-64.25,33.39-33.81,73.96-45.15,119.97-38.23,53.82,8.09,92.47,36.46,114.51,87.11,18.87,43.37,31.14,87.59,20.12,135.03-1.59,6.85-8.06,14.22-14.29,17.99-12.9,7.81-30.93,20.12-44.54,26.79-25.26,12.38-39.33,3.12-60.73-15.48-20.96-18.23-31.79-42.13-37.79-68.45-7.21-31.62-7.76-62.71,10.39-91.6,9.05-14.4,17.16-18.1,32.76-16.17,4.3.53,8.96-1.75,13.45-2.75-2.84-4.66-4.61-10.98-8.74-13.66-10.7-6.94-26.08-4.13-36.84,5.25-13.9,12.12-24.43,27.07-28.47,44.8-13.53,59.31-.35,112.22,42.45,156.18,17.35,17.82,34.54,31.51,58.65,23.76-6.13,2.63-6.84,5.44-8.75,7-9.63,7.88-11.09,9.15-15.76,12.25-2.63,1.75-5.25,4.38-14,6.13-8.83,1.77-12.87-5.12-19.26-10.5-12.06-13.71-30.68-35.77-36.26-53.08-8.24-25.58-16.41-51.26-22.82-77.33-6.87-27.94-8.96-56.4,1.89-84.1,16.67-42.57,59.24-61.78,100.14-31.85,25.2,18.44,43.59,42.16,51.91,72.96,6.94,25.72,10.66,51.45-.72,76.75-13.06,29.04-37.96,34.79-62.54,14.94-3.93-3.17-8.48-6.33-10.84-10.55-8.65-15.49-16.59-31.37-24.59-47.21-3.61-7.15-6.73-14.56-10.07-21.84-1.84.5-3.69.99-5.53,1.49.4,8.99.03,18.1,1.33,26.96,5.29,36.15,23.13,63.7,57.76,77.72,29.44,11.91,54.34.92,67.09-28.28,13.63-31.21,11.75-62.81,3.12-95.03-17.04-63.58-57.73-98.38-122.78-108.96-43.01-7-68.8,9.35-88.27,43.14-12.32,21.38-38.69,61.19-30.62,108.3,4.33,25.29,5.97,32.46,18.02,53.72,2.2,5.75,2.63,16.63,1.75,23.63-2,16.02-1.27,33.06-.98,36.45-1.07-2.6-10.85-19.57-17.26-27.28-14.34-17.22-21.87-37.57-21.19-60.55,1.13-38.32,8.12-75.1,26.71-109.15,3.72-6.82,7.11-13.96,9.43-21.34.94-2.98-.37-8.74-2.57-10.06-2.24-1.35-8.2.03-10.14,2.27-6.31,7.32-12.75,14.97-16.93,23.58-16.25,33.5-27.78,68.22-30.33,106.04-2.38,35.35.86,69.29,14.53,101.99,4.78,11.44,11.27,21.66,24.91,26.21,2.44-20.77-18.37-35.11-10.99-56.09,8.22,8.01,16.23,16.22,20.67,26.04,5.55,12.28,8.42,25.82,12.01,38.94,3.37,12.3,12.56,25.16,23.29,33.7l-.17.41c5.83,4.47,14.45,10.74,25.38,17.51,18.01,11.13,29.19,15.21,43.77,19.26,20.18,5.6,35.94,3.82,41.14,5.25,2.2.61,3.22.4,5.25,0,1.02-.2,1.54-.44,1.75-.88.52-1.09-1.17-2.88-1.75-3.5-4.97-5.28-13.13-7-13.13-7-7.95-1.68-15.01-6.31-22.76-8.75-23.66-7.44-35.49-11.16-41.14-14-8.08-4.06-18.82-11.34-29.34-25.39-1.15-2.27-2.4-4.78-3.92-7.87,4.39,1.84,6.26.74,15.76,4.38,21.89,8.37,34.19,8.7,49.02,16.63.56.3,1.1.59,1.64.88,16.33,10.25,32.73,23.06,50.56,25.97,58.53,9.58,87.46,7.55,125.31-38.89,24.56-30.13,32.83-65.58,36.07-104.19,5.85-69.76-11.8-133.06-44.85-192.98-18.49-33.53-43.13-62.85-81.36-73.42Zm-178.58,186.17c-.8-6.68,1.65-13.86,3.18-20.7,6.52-29.24,16.99-56.73,35.8-80.56,11.68-14.81,32.56-24.57,44.8-20.37-.51,1.01-.8,2.18-1.54,2.93-1.91,1.94-3.79,4.06-6.08,5.47-28.52,17.7-43.28,45.3-53.93,75.6-2.93,8.33-4.76,17.38-5.06,26.16-.15,4.53,3.85,9.42,6.56,13.77,3.01,4.83,8.21,8.78,9.81,13.93,8.16,26.41,14.41,53.44,23.37,79.55l8.06,20.15c-14-10.5-22.76-23.63-22.76-23.63-8.06-15.4-15.42-22.97-26.26-44.64-3.77-7.54-14.88-38.87-15.94-47.66Zm101.7,172.69c-.73,2.47-3.33,3.89-5.8,3.16l-63.63-16.21c-9.5-2.45-16.23-10.9-16.48-20.71l-.82-31.32c-.03-1.13.35-2.23,1.06-3.1,1.64-1.99,4.58-2.28,6.57-.64l77.53,63.85c1.49,1.18,2.11,3.15,1.57,4.97Zm52.45-4.97l77.53-63.85c.44-.36.93-.61,1.43-.79.11-.09.22-.17.34-.26-.02.05-.03.11-.05.16,1.72-.48,3.64.06,4.85,1.53.72.87,1.09,1.97,1.06,3.1l-.82,31.32c-.25,9.81-6.98,18.26-16.48,20.71l-30.79,7.84c-6.45,1.85-13.62,3.73-20.4,5.2l-12.43,3.17c-1.33.39-2.69.16-3.78-.52-.22.02-.45.04-.66.06-.06-.23-.12-.47-.16-.7-.54-.54-.96-1.21-1.19-2-.54-1.82.08-3.79,1.57-4.97Zm123.78-26.47c-12.15,21.3-27.85,40.09-48.19,53.55-35.11,23.22-46.24,20.52-88.62,5.17-5.25-1.75-19.44-9.11-26.26-15.76,14.48,7.06,28.98,6.26,47.27,3.5,51.52-7.77,84.9-11.38,104.24-51.83,3.8-4.25,8.22-7.94,12.36-11.9,1.47.66,2.93,1.32,4.4,1.98-1.69,5.12-2.58,10.69-5.19,15.28Z"/><path class="cls-2" d="m396.47,281.9c-15.4-47.17-37.05-90.97-72-127.13-9.73-10.07-19.42-20.19-29.64-29.74-9.35-8.73-18.28-18.9-29.38-24.58-22.8-11.66-46.33-22.55-70.65-30.41-32.91-10.64-66.99-10.74-100.32-.52-5.72,1.75-9.94,8.38-14.85,12.76,6.12.63,12.58,2.84,18.32,1.64,42.11-8.85,83.08-5.36,123.07,10.05,6.92,2.67,13.31,6.73,19.94,10.15-.45,1.23-.9,2.46-1.34,3.68-1.47.19-3.02.79-4.38.5-5.32-1.13-10.65-2.32-15.86-3.88-32.91-9.84-66.42-14.19-100.65-10.03-21.91,2.66-43.32,7.49-58.77,25.19-3.7,4.24-5.76,9.89-9.13,15.87,3.95.64,5.23,1.28,6.12.92,9.04-3.59,17.95-7.54,27.04-11.01,72.85-27.81,140.63-12.58,204.54,26.29,15.17,9.23,28.67,22.99,39.46,37.28,36.41,48.25,59.8,102.03,63.37,163.34.34,5.86,3.26,11.56,4.98,17.34,1.42-.15,2.85-.31,4.27-.46,1.76-5.78,3.95-11.47,5.21-17.35,5.2-24.36-1.95-47.28-9.34-69.9Z"/><path class="cls-2" d="m237.5,320.2c-5.72-14-10.21-28.59-17.02-42.03-6.27-12.38-16.09-15.74-27.24-11.99-11.3,3.8-14,12.98-13.05,23.36,3.42,37.53,20.28,68.65,48.83,92.47,20.16,16.81,43.55,6.87,47.27-19.23,5.21-36.55-7.51-68.25-29.78-96.46-4.14-5.24-9.87-14.17-17.93-8.37-8.94,6.44.32,13,3.32,18.99,7.98,15.95,17.2,31.34,24.1,47.73,2.97,7.05,1.46,15.99,2.15,26.71-14.41-8.69-16.38-20.69-20.67-31.18Zm14.1,53.73c-4-1.55-8.6-2.29-11.89-4.77-24.51-18.47-38.07-43.65-42.93-73.54-.66-4.07,2.46-8.76,3.83-13.16,3.45,3.08,8.26,5.53,10.04,9.38,2.88,6.23,4.18,13.31,5.41,20.16,3.58,19.97,13.21,36.27,28.54,49.44,3.29,2.83,5.95,6.4,8.89,9.64l-1.9,2.86Z"/><path class="cls-2" d="m139.2,51.54c98.72,5.07,174.91,48.39,226.83,133.13,4.48,7.31,9.29,14.43,14.31,21.36,1.81,2.5,4.73,4.2,9.36,8.16-.49-7.08.33-11.42-1.21-14.63-8.35-17.4-14.67-36.65-26.63-51.21-16.71-20.32-36.99-38-57.16-55.14-46.53-39.52-100.85-59.6-161.98-60.75-13-.24-25.63,1.36-35.01,11.71.01,1.62.02,3.24.04,4.87,10.48.84,20.95,1.94,31.45,2.48Z"/><path class="cls-2" d="m322.62,93.64c3.74,3.18,8.91,4.7,13.42,6.99,1.05-.91,2.1-1.83,3.16-2.74-1.64-4.79-2.24-10.39-5.17-14.18-5.17-6.7-11.16-13.11-17.88-18.23-37.29-28.43-79.51-45.61-125.76-52.51-12.71-1.9-26.04-2.98-39.67,6.66,6.11,2.03,10.26,3.97,14.62,4.78,57.87,10.75,111.71,30.49,157.28,69.23Z"/><path class="cls-2" d="m235.31,12.96c22.77,10.05,45.58,20,68.53,29.62,1.88.79,4.84-1,7.3-1.6-.93-2.65-1.05-6.56-2.91-7.74-15.39-9.75-30.46-20.45-46.99-27.79-8.08-3.58-19.06-.62-28.73-.62-.23,1.29-.47,2.59-.7,3.88,1.15,1.45,2,3.58,3.49,4.24Z"/></svg>